<svg width="32" height="32" viewBox="0 0 32 32" fill="none" xmlns="http://www.w3.org/2000/svg">
<path opacity="0.4" d="M7.84621 3.92307H23.5385C26.4285 3.92307 28.7693 6.25076 28.7693 9.1146V22.27C28.7693 25.1338 26.4285 27.4615 23.5385 27.4615H7.84621C4.95621 27.4615 2.61544 25.1338 2.61544 22.27V9.1146C2.61544 6.25076 4.95621 3.92307 7.84621 3.92307Z" fill="white"/>
<path d="M6.53846 11.4423H13.0769C13.6131 11.4423 14.0577 10.9977 14.0577 10.4615C14.0577 9.92537 13.6131 9.48075 13.0769 9.48075H6.53846C6.00231 9.48075 5.55769 9.92537 5.55769 10.4615C5.55769 10.9977 6.00231 11.4423 6.53846 11.4423ZM6.53846 16.6731H11.7692C12.3054 16.6731 12.75 16.2284 12.75 15.6923C12.75 15.1561 12.3054 14.7115 11.7692 14.7115H6.53846C6.00231 14.7115 5.55769 15.1561 5.55769 15.6923C5.55769 16.2284 6.00231 16.6731 6.53846 16.6731ZM6.53846 21.9038H9.15385C9.69 21.9038 10.1346 21.4592 10.1346 20.9231C10.1346 20.3869 9.69 19.9423 9.15385 19.9423H6.53846C6.00231 19.9423 5.55769 20.3869 5.55769 20.9231C5.55769 21.4592 6.00231 21.9038 6.53846 21.9038ZM20.2692 15.4203C19.4681 15.4203 18.6997 15.102 18.1332 14.5355C17.5667 13.969 17.2485 13.2007 17.2485 12.3995C17.2485 11.5984 17.5667 10.83 18.1332 10.2635C18.6997 9.69701 19.4681 9.37875 20.2692 9.37875C21.0704 9.37875 21.8387 9.69701 22.4052 10.2635C22.9717 10.83 23.29 11.5984 23.29 12.3995C23.29 13.2007 22.9717 13.969 22.4052 14.5355C21.8387 15.102 21.0704 15.4203 20.2692 15.4203ZM19.2231 17.1464C19.9234 17.0811 20.6282 17.0811 21.3285 17.1464C23.5254 17.3557 25.2908 19.0949 25.5 21.2918C25.5131 21.4749 25.4608 21.658 25.33 21.7888C25.1992 21.9195 25.0292 22.0111 24.8462 22.0111H15.6923C15.5092 22.0111 15.3262 21.9326 15.2085 21.8018C15.0908 21.6711 15.0254 21.488 15.0385 21.3049C15.1459 20.2342 15.622 19.234 16.3853 18.4755C17.1486 17.717 18.1517 17.2472 19.2231 17.1464Z" fill="white"/>
</svg>
