<svg width="32" height="32" viewBox="0 0 32 32" fill="none" xmlns="http://www.w3.org/2000/svg">
<path d="M14.3847 23.5385V27.4615C14.3847 28.1808 13.7962 28.7692 13.077 28.7692C12.3577 28.7692 11.7693 28.1808 11.7693 27.4615V23.5385H14.3847ZM19.6154 23.5385V27.4615C19.6154 28.1808 19.027 28.7692 18.3077 28.7692C17.5885 28.7692 17.0001 28.1808 17.0001 27.4615V23.5385H19.6154Z" fill="white"/>
<path opacity="0.4" d="M22.2307 14.3846V20.9231C22.2307 22.3615 21.0538 23.5385 19.6153 23.5385H11.7692C10.3307 23.5385 9.15381 22.3615 9.15381 20.9231V14.3846C9.15381 12.9461 10.3307 11.7692 11.7692 11.7692H19.6153C21.0538 11.7692 22.2307 12.9461 22.2307 14.3846Z" fill="white"/>
<path d="M6.53848 14.3846V19.6154C6.53848 20.3346 5.95002 20.9231 5.23079 20.9231C4.51156 20.9231 3.9231 20.3346 3.9231 19.6154V14.3846C3.9231 13.6654 4.51156 13.0769 5.23079 13.0769C5.95002 13.0769 6.53848 13.6654 6.53848 14.3846ZM27.4616 14.3846V19.6154C27.4616 20.3346 26.8731 20.9231 26.1539 20.9231C25.4346 20.9231 24.8462 20.3346 24.8462 19.6154V14.3846C24.8462 13.6654 25.4346 13.0769 26.1539 13.0769C26.8731 13.0769 27.4616 13.6654 27.4616 14.3846Z" fill="white"/>
<path opacity="0.4" d="M12.5539 9.93843H18.8308C19.9815 9.93843 20.9231 8.99689 20.9231 7.84613C20.9231 4.95613 18.5823 2.61536 15.6923 2.61536C12.8023 2.61536 10.4615 4.95613 10.4615 7.84613C10.4615 8.99689 11.4031 9.93843 12.5539 9.93843Z" fill="white"/>
</svg>
