<svg width="32" height="32" viewBox="0 0 32 32" fill="none" xmlns="http://www.w3.org/2000/svg">
<path d="M16.3436 19.2885H13.0744C12.5382 19.2885 12.0936 18.8439 12.0936 18.3077C12.0936 17.7716 12.5382 17.3269 13.0744 17.3269H16.3436C19.7698 17.3269 22.5552 14.5416 22.5552 11.1154C22.5552 7.68924 19.7698 4.90386 16.3436 4.90386H9.80517C6.37902 4.90386 3.59363 7.68924 3.59363 11.1154C3.59363 12.5539 4.10363 13.9531 5.01902 15.0646C5.35902 15.4831 5.30671 16.0977 4.88825 16.4508C4.46979 16.7908 3.85517 16.7385 3.5021 16.32C2.28685 14.8577 1.62077 13.0167 1.61902 11.1154C1.61902 6.60386 5.28056 2.94232 9.7921 2.94232H16.3306C20.8421 2.94232 24.5036 6.60386 24.5036 11.1154C24.5036 15.6269 20.8552 19.2885 16.3436 19.2885Z" fill="white"/>
<path opacity="0.4" d="M21.5769 28.4423H15.0384C10.5269 28.4423 6.86536 24.7808 6.86536 20.2693C6.86536 15.7577 10.5269 12.0962 15.0384 12.0962H18.3077C18.8438 12.0962 19.2884 12.5408 19.2884 13.077C19.2884 13.6131 18.8438 14.0577 18.3077 14.0577H15.0384C11.6123 14.0577 8.82689 16.8431 8.82689 20.2693C8.82689 23.6954 11.6123 26.4808 15.0384 26.4808H21.5769C25.003 26.4808 27.7884 23.6954 27.7884 20.2693C27.7884 18.8308 27.2784 17.4316 26.363 16.32C26.1983 16.1182 26.1196 15.8596 26.1441 15.6001C26.1686 15.3407 26.2942 15.1014 26.4938 14.9339C26.5932 14.851 26.708 14.7886 26.8317 14.7503C26.9553 14.7119 27.0853 14.6985 27.2141 14.7106C27.343 14.7228 27.4682 14.7603 27.5824 14.8211C27.6967 14.8819 27.7978 14.9646 27.88 15.0647C29.0952 16.5269 29.7613 18.3679 29.763 20.2693C29.75 24.7808 26.0884 28.4423 21.5769 28.4423Z" fill="white"/>
</svg>
